<svg width="250" height="250" viewBox="0 0 250 250" fill="none" xmlns="http://www.w3.org/2000/svg">
<g clip-path="url(#clip0_2829_2)">
<path fill-rule="evenodd" clip-rule="evenodd" d="M0 9.9222C0 4.44232 4.3972 0 9.82143 0H39.2857C44.71 0 49.1071 4.44232 49.1071 9.9222V188.521C49.1071 194.001 53.5044 198.444 58.9286 198.444H186.607C192.031 198.444 196.429 194.001 196.429 188.521V158.755C196.429 153.275 192.031 148.833 186.607 148.833H127.679C111.406 148.833 98.2143 135.506 98.2143 119.067V29.7665C98.2143 13.3269 111.406 0 127.679 0H216.071C232.344 0 245.536 13.3269 245.536 29.7665V218.288C245.536 234.729 232.344 248.055 216.071 248.055H29.4643C13.1917 248.055 0 234.729 0 218.288V9.9222ZM196.429 59.5332C196.429 54.0533 192.031 49.611 186.607 49.611H147.321V89.2998C147.321 94.7796 151.719 99.222 157.143 99.222H196.429V59.5332Z" fill="url(#paint0_linear_2829_2)"/>
<path fill-rule="evenodd" clip-rule="evenodd" d="M0 9.9222C0 4.44232 4.3972 0 9.82143 0H39.2857C44.71 0 49.1071 4.44232 49.1071 9.9222V188.521C49.1071 194.001 53.5044 198.444 58.9286 198.444H186.607C192.031 198.444 196.429 194.001 196.429 188.521V158.755C196.429 153.275 192.031 148.833 186.607 148.833H127.679C111.406 148.833 98.2143 135.506 98.2143 119.067V29.7665C98.2143 13.3269 111.406 0 127.679 0H216.071C232.344 0 245.536 13.3269 245.536 29.7665V218.288C245.536 234.729 232.344 248.055 216.071 248.055H29.4643C13.1917 248.055 0 234.729 0 218.288V9.9222ZM196.429 59.5332C196.429 54.0533 192.031 49.611 186.607 49.611H147.321V89.2998C147.321 94.7796 151.719 99.222 157.143 99.222H196.429V59.5332Z" fill="url(#paint1_linear_2829_2)"/>
</g>
<defs>
<linearGradient id="paint0_linear_2829_2" x1="-2.17418e-05" y1="369.602" x2="260.448" y2="-58.4233" gradientUnits="userSpaceOnUse">
<stop stop-color="#213F7D"/>
<stop offset="1" stop-color="#39CDCC"/>
</linearGradient>
<linearGradient id="paint1_linear_2829_2" x1="-2.17418e-05" y1="369.602" x2="260.448" y2="-58.4233" gradientUnits="userSpaceOnUse">
<stop stop-color="#213F7D"/>
<stop offset="1" stop-color="#39CDCC"/>
</linearGradient>
<clipPath id="clip0_2829_2">
<rect width="250" height="250" fill="white"/>
</clipPath>
</defs>
</svg>
